<?xml version="1.0" standalone="no"?>
<!DOCTYPE svg PUBLIC "-//W3C//DTD SVG 20010904//EN"
 "http://www.w3.org/TR/2001/REC-SVG-20010904/DTD/svg10.dtd">
<svg version="1.0" xmlns="http://www.w3.org/2000/svg"
 width="380.000000pt" height="285.000000pt" viewBox="0 0 380.000000 285.000000"
 preserveAspectRatio="xMidYMid meet">

<g transform="translate(0.000000,285.000000) scale(0.100000,-0.100000)"
fill="#000000" stroke="none">
<path d="M1435 2134 c-125 -30 -411 -203 -443 -268 l-14 -27 -31 19 c-18 10
-37 27 -42 39 -20 39 -37 53 -68 53 -23 0 -28 -3 -20 -11 11 -11 2 -28 -33
-62 -8 -8 3 -16 40 -29 28 -10 64 -32 81 -49 l30 -31 -50 8 c-27 5 -78 8 -112
7 -103 -3 -193 -64 -239 -163 -9 -19 -27 -47 -39 -62 -26 -31 -33 -71 -40
-236 -5 -125 -3 -134 53 -197 70 -79 114 -84 236 -27 l81 37 228 3 c159 2 227
0 222 -7 -3 -6 -27 -11 -53 -12 l-47 0 37 -14 c41 -15 90 -49 155 -107 23 -20
57 -43 75 -51 60 -25 167 -40 240 -33 43 4 76 2 89 -5 30 -16 133 -29 241 -30
51 0 113 -7 138 -14 114 -35 656 -94 1013 -111 l145 -7 43 45 c24 25 57 69 73
99 16 30 39 65 52 79 36 39 65 136 75 250 6 58 14 146 18 195 9 93 1 183 -21
251 -10 29 -20 41 -43 47 -16 5 -52 16 -78 24 -28 9 -65 13 -88 10 -21 -3 -39
-2 -39 2 0 7 -75 41 -93 41 -23 0 -139 40 -205 71 -38 17 -90 33 -122 35 -30
3 -80 12 -110 21 -30 9 -84 15 -120 15 -36 -1 -94 2 -128 6 -62 8 -63 8 -41
-9 23 -17 21 -17 -51 -3 -97 18 -113 17 -71 -5 l33 -18 -45 -12 c-25 -8 -68
-11 -98 -7 -197 20 -268 29 -374 51 -66 13 -171 28 -233 34 -63 5 -116 12
-119 15 -4 3 26 6 67 6 83 0 247 -23 368 -51 45 -10 108 -19 140 -20 31 -1 68
-4 82 -8 14 -4 38 -5 54 -3 24 4 7 14 -100 57 -126 50 -235 102 -283 133 -22
15 -22 16 -5 23 15 6 11 8 -13 8 -17 1 -35 6 -38 11 -10 16 -289 11 -360 -6z
m-52 -128 c-4 -5 1 -7 12 -2 21 8 19 4 -58 -86 -39 -47 -59 -61 -99 -73 -28
-8 -56 -19 -63 -25 -7 -6 -42 -13 -77 -16 -34 -2 -76 -7 -92 -10 -20 -4 -26
-3 -22 5 4 6 12 9 17 6 5 -4 9 2 9 12 0 36 46 81 123 122 43 23 93 43 111 45
19 2 47 11 62 20 31 16 87 18 77 2z m17 -61 c-13 -16 -19 -15 120 -19 129 -4
139 -6 145 -25 11 -36 -4 -48 -68 -54 -34 -3 -161 -33 -282 -66 -220 -61 -265
-71 -210 -47 l30 13 -28 8 c-41 11 -24 19 85 44 81 19 99 26 114 49 26 41 98
122 103 117 2 -3 -2 -11 -9 -20z m-443 -132 c-8 -7 -67 29 -62 38 4 5 19 -1
35 -13 17 -12 28 -23 27 -25z m1028 22 c0 -23 -34 -33 -45 -14 -13 20 1 40 24
37 13 -2 21 -10 21 -23z m206 4 c9 -17 8 -23 -2 -30 -20 -13 -35 -11 -49 6
-10 12 -10 18 0 30 18 21 37 19 51 -6z m167 -107 c-11 -5 -58 26 -58 38 0 5
15 -1 34 -13 18 -12 29 -24 24 -25z m-1365 -1 c16 -6 40 -11 55 -12 22 -1 19
-4 -18 -15 -127 -41 -363 -95 -371 -87 -6 6 11 16 48 28 93 28 92 32 -11 53
-47 9 -57 27 -21 39 36 12 284 7 318 -6z m1797 12 c0 -14 -19 -38 -25 -32 -8
8 5 39 16 39 5 0 9 -3 9 -7z m598 -71 c-4 -22 -46 -28 -54 -8 -4 9 -1 23 6 31
16 19 53 1 48 -23z m130 -19 c3 -21 -22 -38 -39 -27 -13 8 -11 42 4 47 20 9
32 2 35 -20z m-288 -3 c0 -13 -48 -32 -69 -27 -11 2 -4 9 19 19 43 20 50 21
50 8z m-1736 -72 c23 -32 20 -45 -4 -17 l-19 24 -1 -30 c0 -16 -3 -54 -6 -82
-6 -49 -5 -53 17 -62 13 -5 31 -5 40 0 13 7 17 3 17 -16 0 -14 -5 -25 -11 -25
-6 0 -7 -3 -3 -7 3 -4 -8 -22 -26 -40 l-33 -34 25 -19 c28 -21 21 -26 -12 -9
-20 11 -21 10 -15 -36 4 -26 7 -62 7 -79 0 -24 3 -27 10 -16 18 28 11 -9 -9
-48 -42 -82 -85 -90 -118 -24 -15 30 -18 60 -18 162 0 173 38 310 100 358 35
27 40 27 59 0z m1097 12 c236 -23 349 -42 349 -60 0 -13 7 -13 -225 10 -305
30 -308 30 -288 46 22 16 34 17 164 4z m-1971 -14 c0 -2 3 -13 6 -23 6 -16 5
-16 -9 2 -15 19 -16 15 -17 -63 0 -80 1 -82 20 -72 19 10 20 9 18 -13 -2 -13
-12 -36 -21 -51 -21 -31 -24 -60 -14 -136 6 -46 4 -60 -13 -87 -12 -21 -25
-31 -34 -27 -17 6 -37 57 -35 88 1 12 8 0 16 -26 15 -51 23 -57 42 -34 13 15
7 75 -11 108 -6 12 -3 28 8 49 13 26 14 31 2 26 -10 -3 -19 6 -29 30 -13 34
-14 34 -20 12 l-7 -24 -1 25 c0 14 4 32 9 40 5 8 10 12 10 8 0 -16 2 -24 12
-42 10 -18 11 -18 20 -2 8 14 4 24 -16 45 l-26 27 16 55 c9 30 20 58 25 64 13
13 12 6 -10 -55 -18 -52 -18 -56 -3 -74 16 -17 17 -15 25 45 4 35 5 74 2 87
-4 17 -1 22 15 22 11 0 20 -2 20 -4z m907 -108 c-3 -7 -5 -2 -5 12 0 14 2 19
5 13 2 -7 2 -19 0 -25z m1088 -38 c0 -45 8 -60 34 -60 11 0 11 3 0 16 -10 13
-10 17 2 25 12 8 12 10 -1 18 -31 21 6 24 123 13 67 -7 143 -9 170 -6 l47 7 0
-62 c0 -57 -2 -61 -23 -61 -54 0 -412 41 -417 47 -4 5 -5 32 -2 61 4 53 4 53
36 50 30 -3 31 -5 31 -48z m-88 -37 c-3 -10 -5 -4 -5 12 0 17 2 24 5 18 2 -7
2 -21 0 -30z m511 19 c2 -7 -6 -12 -17 -12 -12 0 -21 6 -21 14 0 17 32 15 38
-2z m-1755 1 c-13 -2 -33 -2 -45 0 -13 2 -3 4 22 4 25 0 35 -2 23 -4z m-69
-37 c9 -19 16 -38 16 -44 0 -5 -68 -12 -157 -15 -136 -4 -162 -3 -187 11 -16
10 -31 22 -33 28 -4 12 88 30 222 43 128 13 121 14 139 -23z m1826 -27 c0 -12
-7 -19 -20 -19 -14 0 -20 7 -20 24 0 19 4 23 20 19 11 -3 20 -14 20 -24z
m-1120 -55 c0 -13 -5 -24 -11 -24 -6 0 -8 9 -4 20 4 12 1 28 -7 38 -12 15 -11
16 5 3 9 -7 17 -24 17 -37z m-393 -6 c-3 -7 -5 -2 -5 12 0 14 2 19 5 13 2 -7
2 -19 0 -25z m319 16 c-4 -10 1 -25 10 -35 23 -25 -2 -26 -34 -1 -27 21 -21
52 10 52 15 0 18 -5 14 -16z m199 -33 c-10 -32 -20 -25 -20 14 0 29 2 32 14
21 8 -8 10 -22 6 -35z m-75 10 c0 -9 6 -23 13 -30 10 -11 9 -12 -3 -7 -8 3
-23 9 -32 12 -21 7 -24 40 -5 47 17 6 27 -1 27 -22z m230 16 c0 -2 -10 -12
-22 -23 l-23 -19 19 23 c18 21 26 27 26 19z m343 -4 c-7 -2 -21 -2 -30 0 -10
3 -4 5 12 5 17 0 24 -2 18 -5z m-2026 -35 c-3 -8 -6 -5 -6 6 -1 11 2 17 5 13
3 -3 4 -12 1 -19z m2190 16 c-3 -3 -12 -4 -19 -1 -8 3 -5 6 6 6 11 1 17 -2 13
-5z m-2156 -57 c-10 -9 -11 -8 -5 6 3 10 9 15 12 12 3 -3 0 -11 -7 -18z m2076
-123 c13 -23 51 -34 122 -34 40 0 50 4 74 32 l29 33 -21 -32 c-12 -17 -21 -36
-21 -41 0 -6 -14 -9 -32 -7 -45 6 -139 14 -160 15 -16 0 -18 10 -17 83 2 77 2
79 8 27 4 -30 12 -65 18 -76z m-1469 89 c-53 -2 -143 -2 -200 0 -57 1 -13 3
97 3 110 0 156 -2 103 -3z m2132 -26 c0 -5 -4 -5 -10 -2 -5 3 -10 14 -10 23 0
15 2 15 10 2 5 -8 10 -19 10 -23z m155 7 c9 -10 14 -25 12 -35 -3 -10 2 -28
11 -40 12 -17 12 -20 1 -14 -29 18 -35 30 -31 54 3 16 -1 29 -13 38 -11 7 -14
13 -8 13 7 0 19 -7 28 -16z m83 -48 c-2 -11 -8 -21 -14 -23 -7 -2 -10 6 -7 22
3 14 -1 33 -8 43 -11 13 -9 13 9 -2 13 -11 22 -29 20 -40z m-142 28 c-3 -8 -1
-24 4 -35 7 -13 7 -19 1 -19 -13 0 -25 45 -16 59 10 17 18 13 11 -5z m-1316
-204 c0 -5 -10 -10 -22 -10 -19 0 -20 2 -8 10 19 13 30 13 30 0z"/>
<path d="M1406 1498 c-24 -67 -25 -73 -9 -90 9 -10 19 -18 24 -18 4 0 10 33
14 73 3 39 9 80 11 90 3 9 1 17 -4 17 -5 0 -21 -32 -36 -72z"/>
<path d="M1360 1398 c0 -9 6 -19 13 -21 9 -4 9 -6 -1 -6 -9 -1 -7 -10 9 -32
20 -29 23 -30 32 -13 10 17 11 17 18 -1 5 -14 8 -15 8 -5 1 9 -17 34 -39 55
-27 27 -40 34 -40 23z"/>
<path d="M1402 1248 c-7 -13 -18 -41 -26 -63 -8 -22 -15 -35 -15 -29 -1 6 6
30 14 53 8 22 11 41 7 42 -4 0 -15 2 -24 4 -16 3 -18 -5 -18 -61 0 -47 3 -63
12 -58 8 5 9 2 5 -9 -3 -10 -2 -17 4 -17 5 0 7 -10 4 -23 -4 -16 0 -29 14 -41
19 -17 22 -18 45 -2 14 9 24 22 21 29 -2 6 -9 39 -16 72 l-11 59 -24 -44 c-13
-25 -23 -41 -24 -37 0 13 53 122 62 125 13 6 9 22 -5 22 -8 0 -19 -10 -25 -22z"/>
<path d="M1442 1215 c0 -16 2 -22 5 -12 2 9 2 23 0 30 -3 6 -5 -1 -5 -18z"/>
<path d="M2694 1415 l-29 -23 30 -8 c17 -4 33 -12 38 -18 11 -17 25 11 19 39
-6 34 -24 37 -58 10z m31 -14 c-3 -6 -11 -11 -17 -11 -6 0 -6 6 2 15 14 17 26
13 15 -4z"/>
<path d="M2793 1423 c15 -2 27 -8 27 -13 0 -5 -12 -11 -27 -13 l-28 -4 28 -2
c38 -2 34 -21 -5 -22 l-33 -2 35 -6 c43 -9 53 -2 48 35 -3 25 -7 29 -38 30
-26 1 -28 1 -7 -3z"/>
<path d="M2860 1386 c0 -35 1 -36 36 -36 34 0 35 1 32 33 -3 28 -7 32 -35 35
-32 3 -33 2 -33 -32z m50 -1 c0 -16 -6 -25 -15 -25 -9 0 -15 9 -15 25 0 16 6
25 15 25 9 0 15 -9 15 -25z"/>
<path d="M730 1920 c-11 -21 -6 -40 10 -40 5 0 7 7 3 16 -4 11 1 22 12 30 16
12 17 14 2 14 -9 0 -21 -9 -27 -20z"/>
</g>
</svg>
